<?xml version="1.0" encoding="UTF-8"?><svg id="a" xmlns="http://www.w3.org/2000/svg" width=".625in" height=".625in" viewBox="0 0 45 45"><path d="M20.247,19.159c.184-.078.392-.077.575.002l12.147,5.265c.262.114.434.37.439.656.005.286-.157.548-.414.672l-7.689,3.681c-.008.004-.016.008-.024.011l-1.369.595-3.054,1.517c-.2.1-.435.102-.638.006l.027-12.405Z" fill="#0067c5" fill-rule="evenodd"/><path d="M24.891,40.298c-8.175,0-14.825-6.651-14.825-14.826s6.65-14.826,14.825-14.826,14.826,6.651,14.826,14.826c0,2.468-.619,4.912-1.79,7.068l-2.512-1.364c.945-1.738,1.444-3.71,1.444-5.704,0-6.599-5.369-11.968-11.968-11.968s-11.967,5.369-11.967,11.968,5.369,11.968,11.967,11.968c1.15,0,2.285-.162,3.373-.482l.805,2.742c-1.35.397-2.756.598-4.178.598Z" fill="#0067c5"/><path d="M10.878,15.551c-.035,0-.07-.001-.106-.004l-7.073-.581c-.698-.058-1.217-.67-1.16-1.368.057-.698.661-1.215,1.368-1.16l7.073.581c.698.058,1.217.67,1.16,1.368-.054.662-.61,1.164-1.262,1.164Z" fill="#0067c5"/><path d="M17.446,9.982c-.035,0-.07-.001-.106-.004-.698-.058-1.217-.67-1.16-1.368l.581-7.072c.057-.698.657-1.218,1.368-1.16.698.058,1.217.67,1.16,1.368l-.581,7.072c-.054.662-.61,1.164-1.262,1.164Z" fill="#0067c5"/><path d="M12.51,10.613c-.36,0-.717-.152-.969-.448l-4.59-5.412c-.453-.534-.387-1.335.147-1.788.536-.453,1.335-.386,1.788.147l4.59,5.412c.453.534.387,1.335-.147,1.788-.238.202-.53.301-.819.301Z" fill="#0067c5"/><path d="M39.323,44.332c-.284,0-.567-.124-.759-.364l-6.037-7.515c-.336-.418-.27-1.03.149-1.366.42-.336,1.031-.27,1.366.149l6.037,7.515c.336.418.27,1.03-.149,1.366-.18.145-.394.215-.608.215Z" fill="#0067c5"/><polygon points="38.705 35.694 34.187 36.969 31.969 41.105 28.924 30.416 38.705 35.694" fill="#0067c5"/></svg>